<?xml version="1.0" encoding="UTF-8"?>
<svg version="1.1" xmlns="http://www.w3.org/2000/svg" width="1000" height="1000">
<path d="M0 0 C2.60208637 0.00103878 5.20417433 -0.00000272 7.80625916 -0.00302124 C13.24385419 -0.00477901 18.68094668 0.01720301 24.1184082 0.05419922 C30.37728065 0.0965443 36.63541868 0.10354517 42.89440542 0.0910753 C48.95253947 0.07963018 55.01037741 0.09126026 61.06847954 0.11342239 C63.62996836 0.12108736 66.19147907 0.12343912 68.75297737 0.1202507 C72.3397245 0.11950404 75.92538068 0.14489535 79.51196289 0.17724609 C81.07944275 0.16981384 81.07944275 0.16981384 82.67858887 0.16223145 C95.27131478 0.34234973 106.61711315 5.38121719 115.8125 13.98046875 C131.63655561 30.89022286 140.08424164 52.54201333 147.48608398 74.13208008 C148.28531711 76.3951897 149.11511054 78.64224785 149.95960999 80.88871765 C150.36486452 81.96735093 150.36486452 81.96735093 150.77830601 83.06777477 C150.98423846 83.61517472 151.19017092 84.16257467 151.40234375 84.7265625 C152.21164746 84.72895085 153.02095118 84.73133921 153.85477924 84.73379993 C173.57843305 84.79302517 193.30196544 84.8686233 213.02548695 84.96227741 C222.56377365 85.00717675 232.10202351 85.04660487 241.64038086 85.07299805 C249.95736746 85.09602567 258.27423687 85.12947672 266.59113044 85.17526406 C270.9918249 85.19913217 275.39240376 85.21790286 279.79316139 85.22417641 C283.9423526 85.23025641 288.09124828 85.25036054 292.24032974 85.28083801 C293.7563299 85.28957178 295.27236875 85.29335057 296.78839302 85.29157066 C312.68919747 85.2788059 326.59209369 88.51044103 338.49609375 99.70703125 C350.45720613 112.37894744 354.18668367 125.98483363 354.03053284 143.03396606 C354.03559236 144.51433412 354.04283194 145.99469601 354.05203098 147.47504413 C354.07078043 151.49803028 354.05881889 155.5204 354.04130805 159.54336953 C354.02784367 163.89925454 354.04340329 168.25505467 354.05513 172.6109314 C354.07344285 181.12576884 354.06503735 189.64037576 354.04704178 198.15520586 C354.03297862 205.07837997 354.02913095 212.00149178 354.03248405 218.9246788 C354.03320022 220.40636917 354.03320022 220.40636917 354.03393085 221.91799267 C354.03495724 223.92506117 354.0360126 225.93212965 354.03709661 227.93919812 C354.04565059 245.65889287 354.02903007 263.37847676 353.99926758 281.09814453 C353.97042463 298.27071791 353.96335249 315.44313169 353.97875977 332.61572266 C353.9955397 351.34372938 353.99953854 370.07166043 353.98204941 388.79966915 C353.98020513 390.798472 353.9783704 392.79727486 353.97654533 394.79607773 C353.97563324 395.77937513 353.97472115 396.76267253 353.97378143 397.77576683 C353.96818785 404.68732769 353.97147211 411.59885147 353.97809029 418.51041031 C353.98584012 426.93784558 353.97901131 435.36512404 353.95391525 443.79252781 C353.94145945 448.08788595 353.93522588 452.38300044 353.94645691 456.67836761 C353.95656185 460.61756377 353.94790814 464.55627595 353.92487573 468.49541365 C353.91975357 469.91307949 353.92121046 471.33078937 353.93027038 472.74843551 C354.02477449 488.8906597 349.740795 502.1447145 338.58984375 514.0390625 C327.24464111 524.70791652 313.38641831 528.89160068 298.12084675 528.85519695 C297.19030209 528.85694999 296.25975743 528.85870303 295.30101445 528.86050919 C292.17155282 528.86517454 289.04213754 528.86270229 285.91267395 528.86027527 C283.65081945 528.86214297 281.38896528 528.86444351 279.12711161 528.86714059 C272.90243678 528.87327007 266.67777535 528.87312364 260.45309818 528.87194622 C254.43215028 528.87176341 248.41120697 528.87625124 242.39026106 528.8805591 C228.55188393 528.89023344 214.7135105 528.89304339 200.87513039 528.89361616 C190.18791371 528.89407562 179.50069849 528.89613352 168.81348228 528.89931679 C165.73768622 528.90021433 162.66189015 528.90110414 159.58609408 528.90199167 C158.82144809 528.90221271 158.0568021 528.90243376 157.26898502 528.90266151 C135.7584419 528.9088164 114.24789928 528.91276201 92.73735523 528.91231823 C91.92623845 528.91230265 91.11512167 528.91228707 90.27942559 528.91227102 C86.16831258 528.91218791 82.05719957 528.91208887 77.94608656 528.91198631 C77.1295999 528.91196637 76.31311323 528.91194642 75.47188454 528.91192587 C73.82074868 528.91188544 72.16961283 528.91184364 70.51847697 528.91180048 C44.83254344 528.9111878 19.14662311 528.9186927 -6.53930664 528.93237305 C-35.39541001 528.94773548 -64.25150471 528.95633916 -93.10761243 528.95540982 C-96.18498027 528.95533519 -99.26234811 528.95528649 -102.33971596 528.95525551 C-103.09744492 528.95524385 -103.85517387 528.9552322 -104.63586432 528.95522019 C-116.82719877 528.95518943 -129.01852175 528.96157405 -141.2098528 528.97018777 C-153.46438557 528.97866701 -165.71890158 528.97965209 -177.97343566 528.97307845 C-184.61164992 528.96970948 -191.24983156 528.96977188 -197.88804436 528.9784317 C-203.96581167 528.98627888 -210.0435044 528.98488346 -216.12126986 528.97614757 C-218.31911858 528.97460865 -220.51697282 528.97644347 -222.71481504 528.98200765 C-242.76670464 529.02940676 -258.73646122 527.66355936 -274.12109375 513.42578125 C-275.59765625 511.7265625 -275.59765625 511.7265625 -275.59765625 509.7265625 C-276.25765625 509.7265625 -276.91765625 509.7265625 -277.59765625 509.7265625 C-278.8952995 507.69841699 -280.15840466 505.65785496 -281.41015625 503.6015625 C-281.76658203 503.05113281 -282.12300781 502.50070312 -282.49023438 501.93359375 C-288.77755547 491.43549798 -289.03910308 478.80966077 -288.97187805 466.912323 C-288.974626 465.47335903 -288.97868433 464.03439709 -288.98392171 462.59544003 C-288.99440971 458.68240995 -288.98644462 454.76961161 -288.97517121 450.85659194 C-288.96626807 446.62070388 -288.97479019 442.38484417 -288.98103333 438.1489563 C-288.99048748 429.86764723 -288.9839515 421.58642573 -288.97177038 413.3051232 C-288.95810179 403.65047445 -288.95979249 393.9958462 -288.96190371 384.34119023 C-288.96508858 367.11009199 -288.95345418 349.87903518 -288.93383789 332.64794922 C-288.91482999 315.94676451 -288.90775253 299.24562834 -288.91333008 282.54443359 C-288.91939409 264.33285076 -288.91919984 246.12128922 -288.90784425 227.90970814 C-288.90663702 225.96623492 -288.90543104 224.0227617 -288.9042263 222.07928848 C-288.90362276 221.12319648 -288.90301923 220.16710448 -288.9023974 219.18204 C-288.89852592 212.45988776 -288.89890886 205.73774348 -288.90081215 199.01559067 C-288.90293884 190.81981131 -288.897674 182.62407436 -288.8831986 174.42830692 C-288.87597799 170.25060449 -288.87185759 166.07296365 -288.87644196 161.89525604 C-288.88054295 158.06476265 -288.8752837 154.23439599 -288.86281588 150.40392174 C-288.85853949 148.37545526 -288.86395106 146.34697533 -288.86980516 144.3185128 C-288.78712179 126.91644568 -285.41367379 113.27410301 -273.34375 100.3046875 C-261.92793322 89.38361719 -249.53190493 85.30595321 -234.03515625 85.6015625 C-233.12185547 85.61058594 -232.20855469 85.61960937 -231.26757812 85.62890625 C-229.04398306 85.65218997 -226.82096948 85.6848854 -224.59765625 85.7265625 C-224.6065387 85.17612274 -224.61542114 84.62568298 -224.62457275 84.05856323 C-224.71324916 78.31584078 -224.77347428 72.57331367 -224.81738281 66.83007812 C-224.83746513 64.68839616 -224.86473662 62.5467688 -224.89941406 60.40527344 C-224.94808023 57.32212835 -224.97065915 54.23970988 -224.98828125 51.15625 C-225.01924896 49.72622147 -225.01924896 49.72622147 -225.05084229 48.26730347 C-225.05279801 42.43827306 -224.47105914 39.17170199 -220.59765625 34.7265625 C-217.19012285 33.0227958 -213.29571107 33.56086527 -209.5456543 33.54956055 C-208.1381189 33.53970375 -208.1381189 33.53970375 -206.70214844 33.52964783 C-203.58788987 33.50989039 -200.47367957 33.49824711 -197.359375 33.48828125 C-196.29729136 33.48420572 -195.23520771 33.4801302 -194.14093971 33.47593117 C-188.52014993 33.45506053 -182.89938463 33.4407628 -177.27856445 33.43139648 C-171.46766287 33.42032675 -165.65714368 33.38592294 -159.84637737 33.34622478 C-155.38285094 33.32010254 -150.91941624 33.31170857 -146.45582008 33.30811501 C-144.31358061 33.30323811 -142.17134553 33.29159291 -140.02918053 33.27307701 C-137.03175776 33.24877814 -134.03533252 33.24963376 -131.0378418 33.2565918 C-130.15193863 33.24378174 -129.26603546 33.23097168 -128.35328674 33.21777344 C-124.23512075 33.25263972 -122.12861044 33.3955888 -118.55718994 35.62185669 C-114.4025024 40.0843444 -115.3896959 46.60844451 -115.28125 52.40234375 C-115.2604689 53.3275029 -115.23968781 54.25266205 -115.21827698 55.20585632 C-115.15309065 58.15018557 -115.09404067 61.09460115 -115.03515625 64.0390625 C-114.99194161 66.03972233 -114.94832639 68.04037356 -114.90429688 70.04101562 C-114.79669005 74.93611086 -114.69738686 79.83127514 -114.59765625 84.7265625 C-99.74765625 85.2215625 -99.74765625 85.2215625 -84.59765625 85.7265625 C-84.26765625 83.0865625 -83.93765625 80.4465625 -83.59765625 77.7265625 C-82.87670898 75.06860352 -82.87670898 75.06860352 -82.03125 72.73046875 C-81.71446289 71.85011963 -81.39767578 70.96977051 -81.07128906 70.06274414 C-80.55840332 68.68977173 -80.55840332 68.68977173 -80.03515625 67.2890625 C-79.68163086 66.33056396 -79.32810547 65.37206543 -78.96386719 64.38452148 C-74.70627515 53.05447052 -69.69499671 42.18107324 -63.59765625 31.7265625 C-62.93765625 31.7265625 -62.27765625 31.7265625 -61.59765625 31.7265625 C-61.53320312 31.18386719 -61.46875 30.64117187 -61.40234375 30.08203125 C-60.26593825 26.75556272 -58.08845056 24.55329723 -55.72265625 22.0390625 C-55.23015381 21.51231934 -54.73765137 20.98557617 -54.23022461 20.44287109 C-49.42033611 15.3950511 -44.40747281 10.60925508 -38.59765625 6.7265625 C-37.60687073 5.98641907 -37.60687073 5.98641907 -36.59606934 5.23132324 C-25.55382921 -1.70469846 -12.55683495 -0.09908084 0 0 Z M-46.578125 46.1015625 C-50.35376487 52.56247145 -52.99942656 59.64083678 -55.73291016 66.58837891 C-56.52356511 68.54336369 -57.38366934 70.44837571 -58.265625 72.36328125 C-59.9463476 76.22541909 -59.9463476 76.22541909 -60.59765625 82.7265625 C1.11234375 82.7265625 62.82234375 82.7265625 126.40234375 82.7265625 C121.75724268 67.24289226 116.71312388 53.07201403 107.40234375 39.7265625 C106.70109375 38.6128125 105.99984375 37.4990625 105.27734375 36.3515625 C104.34921875 35.0521875 104.34921875 35.0521875 103.40234375 33.7265625 C102.74234375 33.7265625 102.08234375 33.7265625 101.40234375 33.7265625 C101.40234375 33.0665625 101.40234375 32.4065625 101.40234375 31.7265625 C100.74234375 31.7265625 100.08234375 31.7265625 99.40234375 31.7265625 C99.40234375 31.0665625 99.40234375 30.4065625 99.40234375 29.7265625 C97.25769589 28.16368217 97.25769589 28.16368217 94.58984375 26.6640625 C93.69652344 26.13683594 92.80320312 25.60960937 91.8828125 25.06640625 C88.4528615 23.21369256 85.81048629 22.59901112 81.97080994 22.5592041 C81.06399475 22.54771332 80.15717957 22.53622253 79.22288513 22.52438354 C78.23015091 22.51698151 77.23741669 22.50957947 76.21459961 22.50195312 C75.16708527 22.49056305 74.11957092 22.47917297 73.04031372 22.46743774 C62.07908602 22.3567734 51.11718622 22.30935337 40.15551758 22.26660156 C34.95726463 22.2443368 29.75973073 22.20258157 24.56176758 22.14355469 C18.28179365 22.0723823 12.00249589 22.0357564 5.72213936 22.02348328 C3.33277728 22.01309669 0.94343506 21.99070617 -1.44569588 21.95588684 C-4.79930958 21.90954431 -8.15028602 21.90769734 -11.50415039 21.91601562 C-12.482715 21.89241974 -13.4612796 21.86882385 -14.46949768 21.84451294 C-28.7744163 22.01538709 -39.33182712 34.89624191 -46.578125 46.1015625 Z M-205.59765625 48.7265625 C-207.35838209 50.48728834 -206.72600409 52.8055254 -206.73660278 55.1505127 C-206.73457855 55.90779663 -206.73255432 56.66508057 -206.73046875 57.4453125 C-206.73142548 58.21838745 -206.7323822 58.9914624 -206.73336792 59.78796387 C-206.73404966 61.42553794 -206.73219582 63.06311469 -206.72802734 64.70068359 C-206.72267896 67.21588171 -206.72797251 69.73090123 -206.734375 72.24609375 C-206.73371422 73.83333373 -206.73243305 75.4205736 -206.73046875 77.0078125 C-206.73249298 77.76509644 -206.73451721 78.52238037 -206.73660278 79.3026123 C-207.04219309 82.80671813 -207.04219309 82.80671813 -205.59765625 85.7265625 C-203.61765625 85.7265625 -201.63765625 85.7265625 -199.59765625 85.7265625 C-199.59765625 73.5165625 -199.59765625 61.3065625 -199.59765625 48.7265625 C-201.57765625 48.7265625 -203.55765625 48.7265625 -205.59765625 48.7265625 Z M-189.59765625 48.7265625 C-189.59765625 60.9365625 -189.59765625 73.1465625 -189.59765625 85.7265625 C-187.61765625 85.7265625 -185.63765625 85.7265625 -183.59765625 85.7265625 C-182.06984051 82.67093103 -182.45555371 79.48032368 -182.46484375 76.12890625 C-182.46340866 75.00471031 -182.46340866 75.00471031 -182.46194458 73.85780334 C-182.46126384 72.27328406 -182.46311074 70.68876198 -182.46728516 69.10424805 C-182.47264242 66.67034695 -182.46733278 64.23662977 -182.4609375 61.80273438 C-182.46159815 60.26562459 -182.46287905 58.72851492 -182.46484375 57.19140625 C-182.46281952 56.45913315 -182.46079529 55.72686005 -182.45870972 54.97239685 C-182.16946199 51.56192007 -182.16946199 51.56192007 -183.59765625 48.7265625 C-185.57765625 48.7265625 -187.55765625 48.7265625 -189.59765625 48.7265625 Z M-172.59765625 48.7265625 C-174.35838209 50.48728834 -173.72600409 52.8055254 -173.73660278 55.1505127 C-173.73457855 55.90779663 -173.73255432 56.66508057 -173.73046875 57.4453125 C-173.73142548 58.21838745 -173.7323822 58.9914624 -173.73336792 59.78796387 C-173.73404966 61.42553794 -173.73219582 63.06311469 -173.72802734 64.70068359 C-173.72267896 67.21588171 -173.72797251 69.73090123 -173.734375 72.24609375 C-173.73371422 73.83333373 -173.73243305 75.4205736 -173.73046875 77.0078125 C-173.73249298 77.76509644 -173.73451721 78.52238037 -173.73660278 79.3026123 C-174.04219309 82.80671813 -174.04219309 82.80671813 -172.59765625 85.7265625 C-170.61765625 85.7265625 -168.63765625 85.7265625 -166.59765625 85.7265625 C-166.59765625 73.5165625 -166.59765625 61.3065625 -166.59765625 48.7265625 C-168.57765625 48.7265625 -170.55765625 48.7265625 -172.59765625 48.7265625 Z M-156.59765625 48.7265625 C-156.59765625 60.9365625 -156.59765625 73.1465625 -156.59765625 85.7265625 C-154.61765625 85.7265625 -152.63765625 85.7265625 -150.59765625 85.7265625 C-149.06984051 82.67093103 -149.45555371 79.48032368 -149.46484375 76.12890625 C-149.46340866 75.00471031 -149.46340866 75.00471031 -149.46194458 73.85780334 C-149.46126384 72.27328406 -149.46311074 70.68876198 -149.46728516 69.10424805 C-149.47264242 66.67034695 -149.46733278 64.23662977 -149.4609375 61.80273438 C-149.46159815 60.26562459 -149.46287905 58.72851492 -149.46484375 57.19140625 C-149.46281952 56.45913315 -149.46079529 55.72686005 -149.45870972 54.97239685 C-149.16946199 51.56192007 -149.16946199 51.56192007 -150.59765625 48.7265625 C-152.57765625 48.7265625 -154.55765625 48.7265625 -156.59765625 48.7265625 Z M-139.59765625 48.7265625 C-141.09656981 51.72438961 -140.72759547 54.47663039 -140.73046875 57.81640625 C-140.73142548 58.51673477 -140.7323822 59.21706329 -140.73336792 59.93861389 C-140.73404871 61.420584 -140.73220144 62.9025571 -140.72802734 64.38452148 C-140.72268562 66.65159831 -140.72797154 68.91847629 -140.734375 71.18554688 C-140.73371404 72.62500044 -140.73243252 74.06445388 -140.73046875 75.50390625 C-140.72934082 76.81609131 -140.72821289 78.12827637 -140.72705078 79.48022461 C-140.74789847 82.73949195 -140.74789847 82.73949195 -139.59765625 85.7265625 C-137.61765625 85.7265625 -135.63765625 85.7265625 -133.59765625 85.7265625 C-133.59765625 73.5165625 -133.59765625 61.3065625 -133.59765625 48.7265625 C-135.57765625 48.7265625 -137.55765625 48.7265625 -139.59765625 48.7265625 Z M-258.640625 116.9453125 C-266.814706 127.05757765 -266.75115905 136.49628295 -266.73046875 149.0625 C-266.73142548 150.3375943 -266.7323822 151.6126886 -266.73336792 152.92642212 C-266.73404657 155.61097662 -266.73272042 158.29543918 -266.72802734 160.97998047 C-266.72229596 164.42679149 -266.7256367 167.87352521 -266.73159981 171.32033348 C-266.73606775 174.60939183 -266.73294775 177.89844065 -266.73046875 181.1875 C-266.73249298 182.42905853 -266.73451721 183.67061707 -266.73660278 184.94979858 C-266.73345062 186.08833282 -266.73029846 187.22686707 -266.72705078 188.39990234 C-266.72625519 189.40693207 -266.72545959 190.41396179 -266.72463989 191.45150757 C-266.85305594 193.69336335 -266.85305594 193.69336335 -265.59765625 194.7265625 C-262.82707493 194.84444156 -260.0807389 194.89666191 -257.3089447 194.90737915 C-256.42916492 194.91458367 -255.54938513 194.92178818 -254.64294535 194.92921102 C-251.67074941 194.95207893 -248.69856196 194.96755051 -245.72631836 194.98291016 C-243.60437308 194.99735102 -241.48242993 195.01210854 -239.36048889 195.02716064 C-219.93180829 195.15779142 -200.50254183 195.22337837 -181.07350826 195.27500343 C-166.71615784 195.31384653 -152.35959625 195.38205511 -138.00259203 195.48955119 C-127.90560296 195.56258903 -117.80882848 195.60086859 -107.71158606 195.61402929 C-101.68446369 195.62286933 -95.65831474 195.64691672 -89.63148308 195.70869827 C-83.94878273 195.7662829 -78.26754918 195.78052171 -72.58460045 195.76282501 C-70.5094419 195.76369774 -68.43421965 195.77973941 -66.35932541 195.81287003 C-53.16571808 196.01243037 -44.21259965 194.33036078 -33.24451077 186.8111465 C-19.27457808 177.61084055 -0.08040685 173.10594523 16.40234375 171.7265625 C17.52962891 171.62819092 17.52962891 171.62819092 18.6796875 171.52783203 C37.98807225 169.93786433 56.80747824 171.12663973 75.40234375 176.7265625 C76.64113281 177.08621094 77.87992188 177.44585937 79.15625 177.81640625 C89.14293643 180.90925909 99.60113679 184.94431409 108.21591949 191.00177288 C113.25515407 194.53077966 116.93483232 195.43878571 123.02148438 195.29418945 C123.84195251 195.29491959 124.66242065 195.29564972 125.50775146 195.29640198 C128.19206243 195.29294694 130.87458986 195.25418744 133.55859375 195.21484375 C135.43045097 195.20550815 137.30232049 195.19839557 139.17419434 195.19340515 C144.08010098 195.17439413 148.9852572 195.12534469 153.89086914 195.06988525 C158.90500744 195.01856503 163.91926802 194.99586391 168.93359375 194.97070312 C178.75683855 194.91721981 188.57952853 194.83197906 198.40234375 194.7265625 C198.07234375 197.6965625 197.74234375 200.6665625 197.40234375 203.7265625 C174.96234375 204.0565625 152.52234375 204.3865625 129.40234375 204.7265625 C132.24310489 209.47608474 132.24310489 209.47608474 136.02734375 212.9140625 C139.30744041 215.53675582 139.30744041 215.53675582 140.40234375 217.7265625 C141.06234375 217.7265625 141.72234375 217.7265625 142.40234375 217.7265625 C142.655 218.28988281 142.90765625 218.85320312 143.16796875 219.43359375 C144.57456685 222.04648326 146.25616911 224.13203837 148.15234375 226.4140625 C172.65305385 256.77555398 181.59276125 296.27629049 177.77734375 334.6640625 C173.92800329 361.50101358 162.79988107 387.37074527 144.90234375 407.7890625 C142.18630421 410.33752254 142.18630421 410.33752254 142.40234375 412.7265625 C141.74234375 412.7265625 141.08234375 412.7265625 140.40234375 412.7265625 C139.00892474 414.18305817 139.00892474 414.18305817 137.52734375 416.1015625 C133.87371367 420.44558128 129.75724499 423.90416833 125.31494141 427.39990234 C123.97739137 428.4683242 122.68530674 429.59317319 121.40234375 430.7265625 C121.40234375 431.3865625 121.40234375 432.0465625 121.40234375 432.7265625 C211.49234375 433.2215625 211.49234375 433.2215625 303.40234375 433.7265625 C303.40234375 437.3565625 303.40234375 440.9865625 303.40234375 444.7265625 C298.91027457 445.62497634 294.87279409 445.85920602 290.33805847 445.83335876 C289.53088751 445.83280206 288.72371654 445.83224535 287.89208585 445.83167177 C285.18998945 445.82863813 282.48796717 445.81845618 279.78588867 445.80834961 C277.84741798 445.80479297 275.90894638 445.80170712 273.97047424 445.79905701 C269.79677945 445.79250728 265.62310608 445.78294848 261.44942284 445.77116203 C254.84765972 445.75286759 248.24590181 445.74326959 241.64411926 445.73524475 C222.87136556 445.71109502 204.09864356 445.67523456 185.32592773 445.63061523 C174.95736434 445.60604797 164.58881341 445.58869733 154.22022516 445.57905585 C147.66004156 445.57251978 141.09996067 445.55697472 134.53981245 445.53473842 C130.45427987 445.52298999 126.36877212 445.51963994 122.28322411 445.51864052 C120.39181805 445.51649698 118.50041222 445.51091887 116.60902786 445.5016098 C114.021792 445.4893712 111.43483631 445.48958527 108.84757996 445.49278259 C108.10388552 445.48627479 107.36019109 445.47976699 106.59396046 445.47306198 C99.94433015 445.50491512 93.9736429 447.02165458 87.73828125 449.34765625 C86.5308728 449.78911987 86.5308728 449.78911987 85.29907227 450.23950195 C84.46690186 450.54460693 83.63473145 450.84971191 82.77734375 451.1640625 C74.69978563 454.05256343 66.86726971 456.2534994 58.40234375 457.7265625 C56.94828125 458.03207031 56.94828125 458.03207031 55.46484375 458.34375 C31.79107113 462.84423282 2.27863424 460.33337813 -19.62556553 449.74641228 C-27.08053545 446.29590694 -34.12498155 446.06231885 -42.22827148 445.98486328 C-43.71220034 445.95715942 -45.19610717 445.92825497 -46.67999172 445.89827156 C-51.65235185 445.80746246 -56.62464243 445.76355919 -61.59765625 445.7265625 C-62.47544817 445.71942828 -63.3532401 445.71229406 -64.25763178 445.70494366 C-78.24028742 445.59464939 -92.22263822 445.5837977 -106.20565343 445.592237 C-111.82911425 445.59481359 -117.45257364 445.59240968 -123.07603455 445.59085083 C-132.47264913 445.58904925 -141.86925577 445.59138711 -151.26586914 445.59619141 C-162.13198122 445.60168277 -172.99807468 445.59982844 -183.86418635 445.594365 C-193.24400462 445.58983835 -202.62381728 445.58917954 -212.0036363 445.59180367 C-217.58615293 445.59336222 -223.16866076 445.59357065 -228.75117683 445.59026718 C-233.96766993 445.58739328 -239.18413861 445.58935511 -244.40062904 445.59516144 C-246.31756805 445.59648939 -248.23450909 445.59609433 -250.1514473 445.59389877 C-252.75484752 445.59118998 -255.35816805 445.59456438 -257.96156311 445.59957886 C-258.72921165 445.59734814 -259.49686019 445.59511741 -260.28777081 445.59281909 C-263.73212343 445.29473081 -263.73212343 445.29473081 -266.59765625 446.7265625 C-266.81845599 450.81970728 -266.78344151 454.91653986 -266.78295898 459.01513672 C-266.78511089 461.05849139 -266.80315817 463.10127479 -266.82226562 465.14453125 C-266.84276298 479.06906607 -265.80377243 490.19289559 -255.84765625 500.6015625 C-248.48964766 505.41256812 -241.53663922 507.32562308 -232.81114388 507.23272038 C-231.87459506 507.23883373 -230.93804625 507.24494709 -229.97311717 507.25124571 C-226.84706324 507.26679776 -223.72179045 507.25399873 -220.59573364 507.2412262 C-218.32701061 507.24655339 -216.05829111 507.25362008 -213.78957832 507.26227325 C-207.56439765 507.28090432 -201.33945481 507.27459381 -195.11426425 507.26412022 C-189.08719513 507.25784787 -183.06018266 507.2703347 -177.0331291 507.28217521 C-163.94715443 507.3070911 -150.86125218 507.30900283 -137.77526072 507.30090109 C-126.32217861 507.2938251 -114.86912459 507.29377398 -103.41604233 507.30076408 C-101.87904323 507.30167542 -100.34204413 507.30258618 -98.80504503 507.30349637 C-96.4888519 507.30487952 -94.17265878 507.30627061 -91.85646567 507.30768251 C-70.32590878 507.32066113 -48.79536128 507.32578029 -27.26480293 507.3141489 C-26.45339257 507.31371093 -25.64198221 507.31327296 -24.80598365 507.31282172 C-18.21699319 507.30921499 -11.62800286 507.30538017 -5.03901254 507.30153079 C20.66104275 507.2866842 46.36099177 507.29546188 72.06103516 507.32348633 C100.94465854 507.35492216 129.82821901 507.36988171 158.71185982 507.35968632 C161.79227263 507.35864956 164.87268546 507.35766233 167.9530983 507.3567028 C169.09078632 507.35632947 169.09078632 507.35632947 170.25145795 507.3559486 C181.6948204 507.35251024 193.13812725 507.36180821 204.58147812 507.37747383 C217.59731386 507.39525131 230.61301439 507.39536186 243.62884437 507.37212218 C250.26928908 507.36073071 256.90953476 507.35783451 263.54998398 507.37642288 C269.63087174 507.39322582 275.7112829 507.38687817 281.79213978 507.36220609 C283.98988432 507.35732191 286.18766728 507.36084083 288.38537966 507.37369353 C306.33449292 507.7375696 306.33449292 507.7375696 321.84665668 499.59034449 C328.82850367 492.62345872 331.82464113 484.26267616 331.9495042 474.49995655 C331.9424259 473.49719608 331.9353476 472.4944356 331.92805481 471.46128845 C331.93626163 470.36902295 331.94446844 469.27675745 331.95292395 468.151393 C331.97546215 464.51081946 331.96978767 460.87085512 331.96411133 457.23022461 C331.9744924 454.60830476 331.98660259 451.98639128 332.00030518 449.36448669 C332.0304868 442.97788656 332.03961884 436.59142166 332.04176996 430.20475738 C332.04518078 422.69429291 332.07033424 415.18394524 332.09632584 407.67353065 C332.14232717 394.18495463 332.16973385 380.69640533 332.1862793 367.20776367 C332.20214751 354.29137164 332.22921922 341.37507737 332.27026367 328.45874023 C332.27275065 327.67167286 332.27523763 326.88460549 332.27779998 326.0736876 C332.28782002 322.90445297 332.29786425 319.73521842 332.30794216 316.56598397 C332.5814834 239.34919744 332.5814834 239.34919744 332.12504363 162.13445973 C332.10195447 159.89351227 332.0838215 157.65257672 332.06711769 155.41157341 C332.03647601 151.45708982 331.98106387 147.50322087 331.9206543 143.54907227 C331.9136595 142.45321115 331.9066647 141.35735004 331.89945793 140.22828102 C331.7041748 130.59429105 329.58691864 123.17976814 323.40234375 115.7265625 C322.74234375 115.7265625 322.08234375 115.7265625 321.40234375 115.7265625 C321.40234375 115.0665625 321.40234375 114.4065625 321.40234375 113.7265625 C308.43176713 105.14501938 293.59286366 106.43874318 278.64671326 106.47259521 C276.42917738 106.47028884 274.21164226 106.46711113 271.99410874 106.46314073 C265.91979166 106.45480851 259.8455376 106.45891088 253.77122033 106.46511316 C247.88705065 106.46917738 242.00289424 106.4638402 236.1187264 106.45881843 C223.34623094 106.4483031 210.57375552 106.44919325 197.80125816 106.45497626 C186.62430426 106.46001187 175.44735771 106.46131867 164.27040291 106.45893097 C163.52835594 106.4587782 162.78630896 106.45862543 162.02177572 106.45846803 C159.00940443 106.45784533 155.99703315 106.45720853 152.98466188 106.4565485 C124.74053457 106.45043385 96.49642002 106.45597224 68.25229468 106.4667423 C43.16957309 106.47623412 18.08687181 106.47538304 -6.99584961 106.46582031 C-35.19057954 106.45510701 -63.38529822 106.45086655 -91.5800299 106.45704484 C-94.58653033 106.45768626 -97.59303075 106.45831194 -100.59953117 106.45893097 C-101.7099094 106.4591682 -101.7099094 106.4591682 -102.84271951 106.45941023 C-114.0122155 106.46168341 -125.18170334 106.45902793 -136.3511982 106.45397186 C-149.05296659 106.44825078 -161.75471184 106.44968855 -174.45647735 106.46053335 C-180.93676501 106.46578904 -187.41701146 106.46784848 -193.89729881 106.46123505 C-199.83049711 106.45527152 -205.76361603 106.45855749 -211.69680714 106.46919015 C-213.84198584 106.47142243 -215.98717125 106.47029175 -218.13234562 106.46543857 C-240.3747119 105.77189129 -240.3747119 105.77189129 -258.640625 116.9453125 Z M-53.59765625 225.7265625 C-54.27570313 226.35175781 -54.95375 226.97695313 -55.65234375 227.62109375 C-70.16954252 241.46781949 -80.65127508 259.18051458 -86.34765625 278.3515625 C-86.54625244 279.01937744 -86.74484863 279.68719238 -86.94946289 280.37524414 C-90.10885167 291.54473209 -91.03579708 302.42118468 -91.03515625 313.9765625 C-91.03688843 314.72035156 -91.03862061 315.46414063 -91.04040527 316.23046875 C-91.00408552 351.89264713 -76.66775865 380.95417281 -52.28515625 406.4140625 C-32.00551178 426.26038124 -7.99308676 434.89421893 19.40234375 439.7265625 C20.48902344 439.92894531 21.57570313 440.13132812 22.6953125 440.33984375 C42.1987635 443.12605104 64.52314604 438.6752923 82.40234375 430.7265625 C83.33167725 430.31929932 83.33167725 430.31929932 84.27978516 429.90380859 C94.97469839 425.14145603 104.25598546 419.00071614 113.40234375 411.7265625 C113.98338867 411.2732959 114.56443359 410.8200293 115.16308594 410.35302734 C116.61588363 409.19223433 118.01468449 407.96448953 119.40234375 406.7265625 C119.40234375 406.0665625 119.40234375 405.4065625 119.40234375 404.7265625 C119.95664062 404.51386719 120.5109375 404.30117188 121.08203125 404.08203125 C124.19425519 402.26394757 126.25540905 399.7784268 128.52734375 397.0390625 C129.24096069 396.18598511 129.24096069 396.18598511 129.96899414 395.31567383 C133.50157184 391.00846441 136.74085812 386.54145144 139.83984375 381.9140625 C140.24025879 381.31698486 140.64067383 380.71990723 141.05322266 380.10473633 C145.60757161 373.13106957 148.89346212 365.95120464 151.46484375 358.0390625 C151.72160889 357.25668213 151.97837402 356.47430176 152.24291992 355.66821289 C161.27421193 327.62790106 162.11337673 293.14862847 148.6484375 266.21875 C147.69841533 264.31870567 146.84398845 262.37055676 146.03515625 260.40625 C144.32160254 256.3718622 142.15793899 252.6902226 139.83984375 248.9765625 C139.40728271 248.28208008 138.97472168 247.58759766 138.52905273 246.87207031 C135.00665971 241.36892697 131.0797744 236.66278295 126.53125 231.9609375 C124.40234375 229.7265625 124.40234375 229.7265625 122.7421875 227.4296875 C122.30003906 226.86765625 121.85789062 226.305625 121.40234375 225.7265625 C120.74234375 225.7265625 120.08234375 225.7265625 119.40234375 225.7265625 C119.40234375 225.0665625 119.40234375 224.4065625 119.40234375 223.7265625 C95.93096353 200.65300229 63.13815881 190.26747667 30.87255859 190.42822266 C-1.666905 191.06953171 -30.01564249 203.4287178 -53.59765625 225.7265625 Z M-266.59765625 204.7265625 C-266.62677195 244.84570214 -266.62677195 244.84570214 -266.64648438 284.96484375 C-266.64844815 290.36800133 -266.65046287 295.77115889 -266.65258789 301.17431641 C-266.65285164 301.85154822 -266.65311539 302.52878002 -266.65338713 303.22653401 C-266.65774075 314.17111849 -266.66562694 325.11569774 -266.67480905 336.06027912 C-266.68414859 347.28583147 -266.68963761 358.51138121 -266.69174474 369.73693764 C-266.69305174 376.04490493 -266.69613693 382.35286033 -266.70338631 388.66082382 C-266.7101475 394.59176063 -266.712273 400.52268061 -266.71076393 406.45362091 C-266.71104021 408.63618435 -266.71304475 410.81874832 -266.71686172 413.00130844 C-266.7218005 415.96963317 -266.72065383 418.93789342 -266.71791077 421.90621948 C-266.72082361 422.77974811 -266.72373645 423.65327675 -266.72673756 424.55327594 C-266.83515688 428.77405227 -266.83515688 428.77405227 -265.59765625 432.7265625 C-195.96765625 432.7265625 -126.33765625 432.7265625 -54.59765625 432.7265625 C-54.26765625 432.0665625 -53.93765625 431.4065625 -53.59765625 430.7265625 C-56.27013259 428.38368832 -56.27013259 428.38368832 -59.59765625 427.7265625 C-59.59765625 427.0665625 -59.59765625 426.4065625 -59.59765625 425.7265625 C-61.243536 423.98380474 -61.243536 423.98380474 -63.34765625 422.2265625 C-64.04375 421.618125 -64.73984375 421.0096875 -65.45703125 420.3828125 C-67.44226417 418.84679287 -69.3163767 417.7541659 -71.59765625 416.7265625 C-71.59765625 416.0665625 -71.59765625 415.4065625 -71.59765625 414.7265625 C-72.25765625 414.7265625 -72.91765625 414.7265625 -73.59765625 414.7265625 C-73.85289062 414.159375 -74.108125 413.5921875 -74.37109375 413.0078125 C-75.74235413 410.45744287 -77.36474224 408.44717685 -79.22265625 406.2265625 C-93.04688863 389.1084697 -102.71562571 369.34979088 -107.91015625 347.9765625 C-108.06967773 347.32824463 -108.22919922 346.67992676 -108.39355469 346.01196289 C-110.75648142 335.55744653 -110.75891511 324.83020964 -110.72265625 314.1640625 C-110.72652344 313.02259766 -110.73039063 311.88113281 -110.734375 310.70507812 C-110.69986871 280.49481876 -100.78769362 253.05690738 -82.64550781 228.96411133 C-80.31667119 226.15783279 -80.31667119 226.15783279 -79.59765625 222.7265625 C-78.93765625 222.7265625 -78.27765625 222.7265625 -77.59765625 222.7265625 C-76.06153149 220.98348356 -74.59225266 219.18107154 -73.16015625 217.3515625 C-70.71095906 214.22853346 -68.90854924 211.93382449 -65.59765625 209.7265625 C-65.59765625 209.0665625 -65.59765625 208.4065625 -65.59765625 207.7265625 C-64.93765625 207.7265625 -64.27765625 207.7265625 -63.59765625 207.7265625 C-63.59765625 207.0665625 -63.59765625 206.4065625 -63.59765625 205.7265625 C-62.93765625 205.3965625 -62.27765625 205.0665625 -61.59765625 204.7265625 C-129.24765625 204.7265625 -196.89765625 204.7265625 -266.59765625 204.7265625 Z " fill="#8CEFEB" transform="translate(467.59765625,192.2734375)"/>
<path d="M0 0 C0.33 0 0.66 0 1 0 C1 21.45 1 42.9 1 65 C29.14735531 65.20346731 57.29411163 65.36912768 85.4420166 65.46630955 C98.51271974 65.51263994 111.5829322 65.57576146 124.65332031 65.67895508 C136.05068364 65.7688966 147.44769147 65.82677999 158.84539986 65.84679645 C164.87591714 65.85849008 170.90541775 65.88580785 176.93560791 65.95157051 C182.62236785 66.01308 188.30770139 66.03142029 193.99476242 66.01796913 C196.07154493 66.02042653 198.14837971 66.03807955 200.22487259 66.07284927 C213.42568055 66.28287528 222.38002649 64.61098458 233.35340118 57.0848397 C247.32046283 47.88282714 266.51913709 43.37922476 283 42 C284.12728516 41.90162842 284.12728516 41.90162842 285.27734375 41.80126953 C304.5857285 40.21130183 323.40513449 41.40007723 342 47 C343.23878906 47.35964844 344.47757813 47.71929687 345.75390625 48.08984375 C355.7447863 51.18399534 366.18891199 55.222924 374.81357574 61.27198315 C379.83838474 64.78418712 383.55051111 65.72860029 389.61914062 65.65942383 C390.43960876 65.66990753 391.2600769 65.68039124 392.10540771 65.69119263 C394.7894154 65.71975626 397.47211872 65.71367343 400.15625 65.70703125 C402.02813315 65.72015766 403.90000217 65.73546478 405.77185059 65.75285339 C410.67748529 65.79260594 415.58274863 65.80288755 420.48852539 65.80688477 C425.50288081 65.8162346 430.51701971 65.85365972 435.53125 65.88867188 C445.35415664 65.95314846 455.17690025 65.98646995 465 66 C465.02689216 67.47906892 465.04634621 68.95827483 465.0625 70.4375 C465.07410156 71.26121094 465.08570313 72.08492188 465.09765625 72.93359375 C465 75 465 75 464 76 C461.9145818 76.1238634 459.82499859 76.17799067 457.73608398 76.20532227 C457.08244873 76.21522186 456.42881348 76.22512146 455.75537109 76.23532104 C453.58564936 76.26701634 451.4159057 76.29172492 449.24609375 76.31640625 C447.74536048 76.33696887 446.2446331 76.35796515 444.74391174 76.37937927 C440.78688307 76.43467155 436.82980151 76.48404911 432.87268066 76.53222656 C428.8375984 76.5823895 424.80259328 76.63810268 420.76757812 76.69335938 C412.84511723 76.8010284 404.92259196 76.90245379 397 77 C398.58669141 80.4822962 399.55479133 81.37872533 403 83 C405.25 85 405.25 85 407 87 C407 87.66 407 88.32 407 89 C407.66 89 408.32 89 409 89 C410.83553194 91.10846234 412.55380676 93.22085499 414.25 95.4375 C414.99697144 96.40647217 414.99697144 96.40647217 415.7590332 97.39501953 C417.18338734 99.25554287 418.59488208 101.12492173 420 103 C420.58652344 103.78246094 421.17304687 104.56492187 421.77734375 105.37109375 C442.61241795 134.97883077 449.90534969 174.35266767 444.8203125 209.8046875 C440.46003137 233.83855709 430.81576178 255.65966426 416 275 C415.34386719 275.88429688 414.68773437 276.76859375 414.01171875 277.6796875 C410.45451699 282.40789356 410.45451699 282.40789356 409 284 C408.34 284 407.68 284 407 284 C406.73316406 284.59167969 406.46632813 285.18335938 406.19140625 285.79296875 C402.81955166 292.03919118 396.4113391 296.37838104 390.8203125 300.51953125 C388.88575937 301.88537596 388.88575937 301.88537596 388 304 C389.40558623 303.99861731 389.40558623 303.99861731 390.83956814 303.99720669 C413.60562564 303.97503956 436.37168176 303.95858968 459.13774776 303.94818783 C470.1470929 303.9430243 481.15643092 303.93598052 492.16577148 303.92456055 C501.75781892 303.91461544 511.34986121 303.90814699 520.94191366 303.90591151 C526.02415292 303.9046041 531.10637744 303.90151639 536.18861198 303.89426994 C540.96635671 303.88751246 545.74408055 303.88538248 550.52182961 303.88689232 C552.28071074 303.88661587 554.03959253 303.88460914 555.79846954 303.88079453 C558.1891131 303.87586152 560.57967646 303.87700024 562.97032166 303.87974548 C564.02818128 303.87537622 564.02818128 303.87537622 565.1074118 303.87091869 C569.88587879 303.88587879 569.88587879 303.88587879 571 305 C571.15091913 306.80812724 571.22169008 308.62330617 571.25 310.4375 C571.27578125 311.42621094 571.3015625 312.41492188 571.328125 313.43359375 C571.16570312 314.70396484 571.16570312 314.70396484 571 316 C567.26133234 318.49244511 564.38739438 318.26754754 560.06233215 318.22705078 C559.24461938 318.2273485 558.42690661 318.22764622 557.58441466 318.22795296 C554.83457447 318.22656006 552.08499901 318.21085792 549.33520508 318.1953125 C547.36747386 318.19147549 545.39974069 318.18854726 543.43200684 318.1864624 C539.18895181 318.18013114 534.94597598 318.16757976 530.70295143 318.15032959 C523.99213372 318.12332691 517.28134257 318.11150476 510.57048035 318.10205078 C495.1066713 318.07793502 479.64293079 318.03388442 464.1791687 317.98959351 C450.02156013 317.94923062 435.86397497 317.91308044 421.70632094 317.89316368 C415.0374101 317.88320414 408.368621 317.86349097 401.69975913 317.83630371 C397.54539877 317.82136382 393.39105507 317.81474886 389.23667145 317.8103714 C387.31301307 317.8066332 385.38935777 317.79944289 383.46572685 317.78850555 C380.83460263 317.77401976 378.20374359 317.7720003 375.57258606 317.77294922 C374.43748878 317.76216434 374.43748878 317.76216434 373.27946025 317.75116158 C366.59157767 317.77689936 360.60840199 319.28125146 354.3359375 321.62109375 C353.12852905 322.06255737 353.12852905 322.06255737 351.89672852 322.51293945 C351.06455811 322.81804443 350.2323877 323.12314941 349.375 323.4375 C341.29744188 326.32600093 333.46492596 328.5269369 325 330 C323.5459375 330.30550781 323.5459375 330.30550781 322.0625 330.6171875 C298.38799766 335.11780904 268.87714894 332.60610746 246.97201347 322.01992702 C239.51794574 318.57012601 232.47395934 318.33425905 224.37158203 318.25610352 C222.88772514 318.22830135 221.40388986 318.19932627 219.92007637 318.16929722 C214.94690628 318.07855127 209.973835 318.03524983 205 318 C204.12175914 317.99331472 203.24351828 317.98662944 202.33866405 317.97974157 C188.34543932 317.87796236 174.35257257 317.88002832 160.35907125 317.89860606 C154.732475 317.90497047 149.10587786 317.90545352 143.47927856 317.90663147 C132.88394836 317.909707 122.2886288 317.91786798 111.69330323 317.92798096 C99.60568453 317.93926132 87.51806525 317.94468221 75.43044257 317.94967639 C50.62028921 317.96005496 25.81014521 317.97757906 1 318 C0.9749534 322.07103519 0.95697911 326.14203946 0.94506836 330.21313477 C0.94009376 331.59302554 0.93331168 332.97291121 0.92456055 334.3527832 C0.87344229 342.63093324 1.03942285 350.77282454 2 359 C-0.82508523 356.17491477 -0.92191277 353.50714237 -1.1241985 349.60287541 C-1.12381878 348.76331376 -1.12343906 347.92375211 -1.12304783 347.0587492 C-1.12503888 346.08389338 -1.12702993 345.10903756 -1.12908131 344.10464066 C-1.12616847 343.04141219 -1.12325563 341.97818372 -1.12025452 340.88273621 C-1.12110894 339.74732008 -1.12196337 338.61190395 -1.12284368 337.44208127 C-1.12449353 333.62958446 -1.11898515 329.81713144 -1.11352539 326.00463867 C-1.11268679 323.27487154 -1.11335746 320.54510527 -1.1139679 317.81533813 C-1.11449216 311.93424716 -1.11135549 306.05316727 -1.10573006 300.17207909 C-1.09760193 291.66902055 -1.09499849 283.16596737 -1.09374207 274.66290537 C-1.09155361 260.86714546 -1.08489912 247.07139147 -1.07543945 233.27563477 C-1.06626 219.8745934 -1.05919324 206.47355364 -1.05493164 193.07250977 C-1.05466364 192.23800142 -1.05439565 191.40349306 -1.05411953 190.54369658 C-1.0520401 184.01726233 -1.05008318 177.49082804 -1.04816496 170.96439373 C-1.03873183 138.97625706 -1.01861338 106.98813519 -1 75 C67.97 75 136.94 75 208 75 C208.33 74.34 208.66 73.68 209 73 C210.75601346 71.89818763 212.57088501 70.96281442 214.40625 70 C216.17544341 69.08240231 216.17544341 69.08240231 217 67 C145.06 67 73.12 67 -1 67 C-1 3 -1 3 0 0 Z M213 97 C212.32195312 97.62519531 211.64390625 98.25039063 210.9453125 98.89453125 C196.42811373 112.74125699 185.94638117 130.45395208 180.25 149.625 C180.05140381 150.29281494 179.85280762 150.96062988 179.64819336 151.64868164 C176.48880458 162.81816959 175.56185917 173.69462218 175.5625 185.25 C175.56076782 185.99378906 175.55903564 186.73757813 175.55725098 187.50390625 C175.59357073 223.16608463 189.9298976 252.22761031 214.3125 277.6875 C234.59214447 297.53381874 258.60456949 306.16765643 286 311 C287.08667969 311.20238281 288.17335938 311.40476562 289.29296875 311.61328125 C308.79641975 314.39948854 331.12080229 309.9487298 349 302 C349.9293335 301.59273682 349.9293335 301.59273682 350.87744141 301.17724609 C361.57235464 296.41489353 370.85364171 290.27415364 380 283 C380.58104492 282.5467334 381.16208984 282.0934668 381.76074219 281.62646484 C383.21353988 280.46567183 384.61234074 279.23792703 386 278 C386 277.34 386 276.68 386 276 C386.55429687 275.78730469 387.10859375 275.57460938 387.6796875 275.35546875 C390.79191144 273.53738507 392.8530653 271.0518643 395.125 268.3125 C395.83861694 267.45942261 395.83861694 267.45942261 396.56665039 266.58911133 C400.09922809 262.28190191 403.33851437 257.81488894 406.4375 253.1875 C406.83791504 252.59042236 407.23833008 251.99334473 407.65087891 251.37817383 C412.20522786 244.40450707 415.49111837 237.22464214 418.0625 229.3125 C418.31926514 228.53011963 418.57603027 227.74773926 418.84057617 226.94165039 C427.87186818 198.90133856 428.71103298 164.42206597 415.24609375 137.4921875 C414.29607158 135.59214317 413.4416447 133.64399426 412.6328125 131.6796875 C410.91925879 127.6452997 408.75559524 123.9636601 406.4375 120.25 C406.00493896 119.55551758 405.57237793 118.86103516 405.12670898 118.14550781 C401.60431596 112.64236447 397.67743065 107.93622045 393.12890625 103.234375 C391 101 391 101 389.33984375 98.703125 C388.89769531 98.14109375 388.45554687 97.5790625 388 97 C387.34 97 386.68 97 386 97 C386 96.34 386 95.68 386 95 C362.52861978 71.92643979 329.73581506 61.54091417 297.47021484 61.70166016 C264.93075125 62.34296921 236.58201376 74.7021553 213 97 Z M0 76 C-0.0291157 116.11913964 -0.0291157 116.11913964 -0.04882812 156.23828125 C-0.0507919 161.64143883 -0.05280662 167.04459639 -0.05493164 172.44775391 C-0.05519539 173.12498572 -0.05545914 173.80221752 -0.05573088 174.49997151 C-0.0600845 185.44455599 -0.06797069 196.38913524 -0.0771528 207.33371662 C-0.08649234 218.55926897 -0.09198136 229.78481871 -0.09408849 241.01037514 C-0.09539549 247.31834243 -0.09848068 253.62629783 -0.10573006 259.93426132 C-0.11249125 265.86519813 -0.11461675 271.79611811 -0.11310768 277.72705841 C-0.11338396 279.90962185 -0.1153885 282.09218582 -0.11920547 284.27474594 C-0.12414425 287.24307067 -0.12299758 290.21133092 -0.12025452 293.17965698 C-0.12316736 294.05318561 -0.1260802 294.92671425 -0.12908131 295.82671344 C-0.23750063 300.04748977 -0.23750063 300.04748977 1 304 C70.63 304 140.26 304 212 304 C212.33 303.34 212.66 302.68 213 302 C210.32752366 299.65712582 210.32752366 299.65712582 207 299 C207 298.34 207 297.68 207 297 C205.35412025 295.25724224 205.35412025 295.25724224 203.25 293.5 C202.55390625 292.8915625 201.8578125 292.283125 201.140625 291.65625 C199.15539208 290.12023037 197.28127955 289.0276034 195 288 C195 287.34 195 286.68 195 286 C194.34 286 193.68 286 193 286 C192.74476563 285.4328125 192.48953125 284.865625 192.2265625 284.28125 C190.85530212 281.73088037 189.23291401 279.72061435 187.375 277.5 C173.55076762 260.3819072 163.88203054 240.62322838 158.6875 219.25 C158.52797852 218.60168213 158.36845703 217.95336426 158.20410156 217.28540039 C155.84117483 206.83088403 155.83874114 196.10364714 155.875 185.4375 C155.87113281 184.29603516 155.86726562 183.15457031 155.86328125 181.97851562 C155.89778754 151.76825626 165.80996263 124.33034488 183.95214844 100.23754883 C186.28098506 97.43127029 186.28098506 97.43127029 187 94 C187.66 94 188.32 94 189 94 C190.53612476 92.25692106 192.00540359 90.45450904 193.4375 88.625 C195.88669719 85.50197096 197.68910701 83.20726199 201 81 C201 80.34 201 79.68 201 79 C201.66 79 202.32 79 203 79 C203 78.34 203 77.68 203 77 C203.66 76.67 204.32 76.34 205 76 C137.35 76 69.7 76 0 76 Z " fill="#88E8E5" transform="translate(201,321)"/>
<path d="M0 0 C0.52464844 0.47695313 1.04929687 0.95390625 1.58984375 1.4453125 C1.58984375 2.1053125 1.58984375 2.7653125 1.58984375 3.4453125 C2.39421875 3.785625 2.39421875 3.785625 3.21484375 4.1328125 C18.88171372 12.79081959 28.21034366 33.30681222 33.65234375 49.6328125 C40.24922853 76.46014392 36.79982795 102.60693946 22.83203125 126.4453125 C6.88095137 150.18645464 -15.71434924 163.9112381 -43.19921875 170.0703125 C-56.44002945 171.61668455 -70.68532216 171.5709423 -83.41015625 167.4453125 C-84.62703125 167.09339844 -85.84390625 166.74148438 -87.09765625 166.37890625 C-99.34923796 162.7184577 -109.6518311 156.66920136 -119.41015625 148.4453125 C-120.62832031 147.44564453 -120.62832031 147.44564453 -121.87109375 146.42578125 C-140.97009312 130.1181741 -151.27832946 106.12391758 -153.41015625 81.4453125 C-154.60373577 57.7169517 -147.52369785 36.21011266 -133.22265625 17.2578125 C-132.80661133 16.70448242 -132.39056641 16.15115234 -131.96191406 15.58105469 C-129.6530329 12.63995787 -127.7261112 11.05713643 -124.41015625 9.4453125 C-124.11367188 8.83558594 -123.8171875 8.22585938 -123.51171875 7.59765625 C-120.99675577 2.6836683 -114.86786397 -0.40540479 -110.41015625 -3.5546875 C-109.73597656 -4.04453125 -109.06179688 -4.534375 -108.3671875 -5.0390625 C-75.86973183 -27.13446282 -30.84425118 -22.06826624 0 0 Z M-72.28515625 -3.8046875 C-73.17066162 -3.62276855 -74.05616699 -3.44084961 -74.96850586 -3.25341797 C-81.0944551 -1.94454615 -86.7968653 -0.39098064 -92.41015625 2.4453125 C-93.7559375 3.10853516 -93.7559375 3.10853516 -95.12890625 3.78515625 C-114.08796114 13.60323825 -128.41317674 29.69975309 -135.6328125 49.859375 C-142.81577897 73.08172539 -139.4968727 95.95526639 -128.359375 117.19140625 C-123.44177813 125.4005409 -116.7699645 133.28566483 -109.41015625 139.4453125 C-108.75015625 139.4453125 -108.09015625 139.4453125 -107.41015625 139.4453125 C-107.41015625 140.1053125 -107.41015625 140.7653125 -107.41015625 141.4453125 C-86.41470396 154.10879818 -64.88695719 160.21192202 -40.08203125 155.83203125 C-29.57551479 153.05879958 -18.40472429 147.53952079 -9.41015625 141.4453125 C-9.41015625 140.7853125 -9.41015625 140.1253125 -9.41015625 139.4453125 C-8.85328125 139.2184375 -8.29640625 138.9915625 -7.72265625 138.7578125 C-4.75912761 137.07580976 -2.78945684 134.88400826 -0.41015625 132.4453125 C0.39164063 131.65253906 1.1934375 130.85976563 2.01953125 130.04296875 C15.56808943 115.99662009 22.9419759 96.49392466 23.7265625 77.05859375 C23.57246076 72.98590486 23.0164659 69.13401749 22.27734375 65.1328125 C22.13981689 64.38298096 22.00229004 63.63314941 21.8605957 62.8605957 C17.71164821 40.91078943 6.09861148 21.54780991 -12.51171875 8.72973633 C-30.01937233 -2.71627783 -51.707201 -8.06543344 -72.28515625 -3.8046875 Z " fill="#86E4E1" transform="translate(559.41015625,431.5546875)"/>
<path d="M0 0 C28.06863234 -0.18708616 56.13717089 -0.32805577 84.20630169 -0.41449738 C97.24004172 -0.45570501 110.27339379 -0.51186179 123.30688477 -0.60351562 C134.67015865 -0.68338594 146.03315149 -0.73489734 157.3966983 -0.75270796 C163.41081757 -0.76311521 169.42413299 -0.78748231 175.437994 -0.84584045 C181.10578917 -0.90039158 186.77245414 -0.91684221 192.44048691 -0.90486145 C194.51367536 -0.90705122 196.58690402 -0.9228164 198.65986443 -0.9536438 C211.45633945 -1.13450931 219.84993811 -0.22348615 230 8 C231.98 9.485 231.98 9.485 234 11 C156.78 11 79.56 11 0 11 C0 7.37 0 3.74 0 0 Z " fill="#94FDF8" transform="translate(201,626)"/>
<path d="M0 0 C0.72858544 0.00291284 1.45717088 0.00582568 2.20783466 0.00882679 C2.97639693 0.00797237 3.7449592 0.00711794 4.53681123 0.00623763 C7.13180097 0.0045805 9.72672715 0.01010797 12.321711 0.01555592 C14.17405169 0.01583777 16.02639248 0.0156801 17.8787331 0.01511341 C22.92397722 0.01482534 27.96919779 0.02072358 33.01443642 0.02768737 C38.28087681 0.03391936 43.54731767 0.03452458 48.81376117 0.03571278 C58.79395269 0.03882655 68.77413332 0.04704056 78.75432003 0.05706227 C90.11325501 0.06822197 101.47219051 0.0737335 112.83112961 0.0787577 C136.20421683 0.08922314 159.57729436 0.10682347 182.95037311 0.12908131 C182.95037311 3.75908131 182.95037311 7.38908131 182.95037311 11.12908131 C115.63037311 11.12908131 48.31037311 11.12908131 -21.04962689 11.12908131 C-18.1097978 8.18925223 -15.51910291 6.53950749 -11.92462689 4.50408131 C-4.02117017 0.01218864 -4.02117017 0.01218864 0 0 Z " fill="#93FBF7" transform="translate(589.0496268868446,625.8709186911583)"/>
<path d="M0 0 C27.39 0 54.78 0 83 0 C83 13.86 83 27.72 83 42 C79.65811668 43.67094166 75.90081751 43.14129028 72.2265625 43.1328125 C71.32696304 43.13413177 70.42736359 43.13545105 69.50050354 43.1368103 C66.54196826 43.13873922 63.58352581 43.13235989 60.625 43.125 C59.12134384 43.12367065 59.12134384 43.12367065 57.58731079 43.12231445 C38.37361761 43.10237787 19.20393264 42.63222824 0 42 C0 28.14 0 14.28 0 0 Z M9 9 C8.97112764 12.81248426 8.95324508 16.6249407 8.9375 20.4375 C8.92912109 21.52611328 8.92074219 22.61472656 8.91210938 23.73632812 C8.90888672 24.77080078 8.90566406 25.80527344 8.90234375 26.87109375 C8.89710693 27.82943115 8.89187012 28.78776855 8.88647461 29.77514648 C8.7494687 31.97285339 8.7494687 31.97285339 10 33 C11.95824698 33.09925773 13.92009897 33.12799414 15.88085938 33.12939453 C17.13886353 33.13254669 18.39686768 33.13569885 19.69299316 33.13894653 C21.07657913 33.13715675 22.46016478 33.1351058 23.84375 33.1328125 C25.25240089 33.13348559 26.66105166 33.13445565 28.06970215 33.13571167 C31.02548323 33.13718842 33.98123414 33.13503483 36.93701172 33.13037109 C40.73374584 33.12467381 44.53040928 33.12795293 48.32714081 33.13394356 C51.23696428 33.13754979 54.14677088 33.1364103 57.05659485 33.13381577 C58.456894 33.13314667 59.85719467 33.13397432 61.25749207 33.13629532 C63.21137464 33.13882283 65.16526255 33.13429033 67.11914062 33.12939453 C68.23309204 33.12859894 69.34704346 33.12780334 70.49475098 33.12698364 C72.93977461 33.28369372 72.93977461 33.28369372 74 32 C74.08700342 30.36527118 74.10701063 28.72685945 74.09765625 27.08984375 C74.09443359 26.10048828 74.09121094 25.11113281 74.08789062 24.09179688 C74.07951172 23.05087891 74.07113281 22.00996094 74.0625 20.9375 C74.05798828 19.89271484 74.05347656 18.84792969 74.04882812 17.77148438 C74.03699913 15.1809334 74.02051689 12.59049441 74 10 C71.25334611 8.62667306 69.06375932 8.88035108 65.98974609 8.88647461 C64.72858978 8.88655014 63.46743347 8.88662567 62.1680603 8.88670349 C60.78651897 8.89181051 59.40497804 8.89702651 58.0234375 8.90234375 C56.6138209 8.90420856 55.20420366 8.90563217 53.79458618 8.90663147 C50.08246068 8.91045167 46.37037422 8.92027772 42.65826416 8.93133545 C38.87113981 8.94156025 35.08400917 8.94613138 31.296875 8.95117188 C23.86456552 8.96190042 16.43228823 8.97897089 9 9 Z " fill="#87E7E4" transform="translate(649,321)"/>
<path d="M0 0 C68.64 0 137.28 0 208 0 C205.45297845 2.54702155 203.8473008 2.22958185 200.37566566 2.23198509 C199.5840724 2.22226992 198.79247913 2.21255474 197.97689819 2.20254517 C196.72168617 2.19900276 196.72168617 2.19900276 195.44111633 2.19538879 C192.61214149 2.18493064 189.78347338 2.15999164 186.95458984 2.13525391 C184.90182732 2.12462515 182.84906006 2.11487892 180.79628944 2.10594749 C175.28308438 2.07950882 169.77002558 2.04094059 164.25691223 1.99992371 C159.08968146 1.96329941 153.92241928 1.93752861 148.75512695 1.91088867 C133.62835296 1.82654021 118.50168064 1.72469324 103.375 1.625 C69.59125 1.41875 35.8075 1.2125 1 1 C1.33 76.24 1.66 151.48 2 229 C71.30529822 228.67097564 71.30529822 228.67097564 140.6105957 228.34179688 C153.99060059 228.27832031 153.99060059 228.27832031 160.24699402 228.24865723 C164.63269568 228.22785862 169.01839715 228.20701986 173.40409851 228.18615723 C178.99059723 228.15958374 184.57709628 228.13307781 190.16359556 228.10662174 C192.21867045 228.09687782 194.27374522 228.08710973 196.32881987 228.07731533 C199.09549977 228.06413284 201.86218006 228.05103704 204.62886047 228.03796387 C205.44088016 228.03407402 206.25289984 228.03018417 207.08952618 228.02617645 C210.05971764 228.01221315 213.02977078 228 216 228 C216.33 228.66 216.66 229.32 217 230 C145.72 230 74.44 230 1 230 C1 233.63 1 237.26 1 241 C2.82027317 240.98812133 2.82027317 240.98812133 4.67731953 240.97600269 C33.4653969 240.78881038 62.25353872 240.61712915 91.0418198 240.46462174 C94.58297488 240.4458487 98.12412925 240.4269444 101.6652832 240.40795898 C102.37028136 240.40418144 103.07527951 240.40040389 103.80164125 240.39651188 C115.22602658 240.3349841 126.65032128 240.26281652 138.0746179 240.1867362 C149.79168093 240.10894231 161.50876832 240.04253746 173.2259571 239.98676747 C179.80957375 239.95493454 186.39306434 239.91775234 192.97657204 239.86800575 C199.16767717 239.82138989 205.35869519 239.78876865 211.54993629 239.7670784 C213.82725015 239.75659698 216.10454665 239.74091577 218.38178635 239.71975899 C221.48123593 239.69172603 224.58020425 239.68207694 227.67976379 239.67720032 C228.58928907 239.66457084 229.49881434 239.65194137 230.43590099 239.63892919 C231.26395549 239.64141894 232.09200999 239.64390869 232.94515705 239.64647388 C233.66092987 239.64229696 234.3767027 239.63812004 235.1141656 239.63381654 C237 240 237 240 240 243 C161.46 243 82.92 243 2 243 C1.88115508 263.52807144 1.88115508 263.52807144 3 284 C0.17491477 281.17491477 0.07808723 278.50714237 -0.1241985 274.60287541 C-0.12381878 273.76331376 -0.12343906 272.92375211 -0.12304783 272.0587492 C-0.12503888 271.08389338 -0.12702993 270.10903756 -0.12908131 269.10464066 C-0.12616847 268.04141219 -0.12325563 266.97818372 -0.12025452 265.88273621 C-0.12110894 264.74732008 -0.12196337 263.61190395 -0.12284368 262.44208127 C-0.12449353 258.62958446 -0.11898515 254.81713144 -0.11352539 251.00463867 C-0.11268679 248.27487154 -0.11335746 245.54510527 -0.1139679 242.81533813 C-0.11449216 236.93424716 -0.11135549 231.05316727 -0.10573006 225.17207909 C-0.09760193 216.66902055 -0.09499849 208.16596737 -0.09374207 199.66290537 C-0.09155361 185.86714546 -0.08489912 172.07139147 -0.07543945 158.27563477 C-0.06626 144.8745934 -0.05919324 131.47355364 -0.05493164 118.07250977 C-0.05466364 117.23800142 -0.05439565 116.40349306 -0.05411953 115.54369658 C-0.0520401 109.01726233 -0.05008318 102.49082804 -0.04816496 95.96439373 C-0.03873183 63.97625706 -0.01861338 31.98813519 0 0 Z " fill="#426D75" transform="translate(200,396)"/>
<path d="M0 0 C8.5880572 -0.02312635 17.17610149 -0.04091658 25.76418209 -0.05181217 C29.751572 -0.05704036 33.73894067 -0.06413684 37.72631836 -0.07543945 C41.57125114 -0.08627061 45.41616345 -0.09227732 49.26111031 -0.09487724 C50.73118983 -0.09673108 52.20126818 -0.10035091 53.67133904 -0.10573006 C55.72354467 -0.11294355 57.77566467 -0.11399081 59.82788086 -0.11352539 C61.58327431 -0.11685631 61.58327431 -0.11685631 63.37413025 -0.12025452 C66 0 66 0 67 1 C67.1875 4.4375 67.1875 4.4375 67 8 C65 10 65 10 62.33653259 10.24723816 C61.2070369 10.24581314 60.0775412 10.24438812 58.91381836 10.24291992 C57.63586899 10.24599655 56.35791962 10.24907318 55.04124451 10.25224304 C53.64077576 10.24534582 52.2403088 10.23807889 50.83984375 10.23046875 C49.41020245 10.22927706 47.98056035 10.22882376 46.55091858 10.2290802 C43.55399682 10.22751509 40.55719446 10.2192226 37.56030273 10.20581055 C33.71090198 10.18880528 29.86163236 10.18499662 26.01219845 10.18575573 C23.06033568 10.18548437 20.10850182 10.18000899 17.15664864 10.17275429 C15.73681418 10.16956326 14.31697644 10.1675992 12.8971386 10.16686058 C10.91700952 10.16470249 8.93689256 10.15517331 6.95678711 10.14526367 C5.82808701 10.14145187 4.6993869 10.13764008 3.53648376 10.13371277 C1 10 1 10 0 9 C-0.07179964 7.48071962 -0.08392007 5.95832518 -0.0625 4.4375 C-0.05347656 3.61121094 -0.04445313 2.78492188 -0.03515625 1.93359375 C-0.02355469 1.29550781 -0.01195312 0.65742188 0 0 Z " fill="#7FD8D6" transform="translate(707,387)"/>
<path d="M0 0 C27.06 0 54.12 0 82 0 C82 2.64 82 5.28 82 8 C72.78528211 8.16280253 63.57106562 8.28687585 54.35521889 8.3626852 C50.07499715 8.39908626 45.79576537 8.44839034 41.51611328 8.52807617 C37.37927015 8.60461339 33.24337389 8.64608882 29.10587692 8.6641407 C27.53423546 8.67699029 25.96264088 8.70208258 24.39140701 8.7401104 C15.40664238 8.94874687 8.89597817 8.53749874 1.59945679 2.60487366 C0 1 0 1 0 0 Z " fill="#93FBF7" transform="translate(584,388)"/>
<path d="M0 0 C5.84872632 5.98474321 7.6710251 9.78521336 7.9375 18.1875 C7.78756934 24.48458782 6.86576072 28.50047578 3.4375 33.75 C2.7775 33.75 2.1175 33.75 1.4375 33.75 C1.18871094 34.36488281 0.93992187 34.97976563 0.68359375 35.61328125 C-0.78680611 38.13462521 -1.87626453 38.74045123 -4.5 39.9375 C-5.18964844 40.26105469 -5.87929688 40.58460938 -6.58984375 40.91796875 C-13.24208694 43.72376637 -19.14555693 43.53847335 -25.875 41 C-29.43930638 39.43680498 -32.21026581 37.95759207 -34.5625 34.75 C-34.5625 34.09 -34.5625 33.43 -34.5625 32.75 C-35.2225 32.75 -35.8825 32.75 -36.5625 32.75 C-39.94524504 24.39884818 -42.05638563 18.36546961 -38.8125 9.625 C-35.1610089 1.22784276 -30.27583192 -2.3809201 -21.9375 -5.6875 C-14.35476703 -7.31026387 -5.89633751 -4.88238788 0 0 Z M-33.5625 7.75 C-36.08256652 13.03859031 -36.25288119 17.98611979 -35.5625 23.75 C-34.49595904 26.70849188 -33.19949086 29.03873389 -31.5625 31.75 C-30.9025 31.75 -30.2425 31.75 -29.5625 31.75 C-29.5625 32.41 -29.5625 33.07 -29.5625 33.75 C-23.26864393 38.43379986 -17.26213367 38.83365215 -9.5625 37.75 C-4.77739538 36.0442687 -1.72485658 33.46731365 0.875 29.125 C3.57534188 23.29226154 4.82455844 17.72577643 2.6484375 11.48828125 C0.9938412 8.07172935 -0.64772605 5.24400606 -3.5625 2.75 C-4.2225 2.75 -4.8825 2.75 -5.5625 2.75 C-5.5625 2.09 -5.5625 1.43 -5.5625 0.75 C-16.39308946 -3.69331875 -26.07235151 -1.28223789 -33.5625 7.75 Z " fill="#6DB9BA" transform="translate(551.5625,465.25)"/>
<path d="M0 0 C0.84054593 0.00152028 1.68109187 0.00304056 2.54710889 0.0046069 C5.36795605 0.01338746 8.18815749 0.04377038 11.0088501 0.07402039 C13.0291124 0.08472689 15.04938212 0.09410425 17.06965637 0.10224915 C22.55906138 0.12815894 28.048177 0.17271196 33.53742886 0.22054696 C39.27224498 0.26737305 45.00714864 0.29714454 50.74206543 0.32870483 C61.60411236 0.39108253 72.46599264 0.46885613 83.32789731 0.55212516 C95.69285926 0.6461699 108.057909 0.72310615 120.42299604 0.79858649 C145.86093758 0.9542519 171.29869269 1.13146363 196.73638916 1.32279968 C194.1836519 3.87553694 192.54070458 3.5618477 189.06039178 3.5809623 C188.26079117 3.57513662 187.46119056 3.56931093 186.63735962 3.56330872 C185.79035543 3.56501757 184.94335124 3.56672642 184.07068026 3.56848705 C181.21616408 3.5717964 178.36187999 3.56075457 175.50738525 3.54985046 C173.46770737 3.54928666 171.42802908 3.5496023 169.38835144 3.55073547 C163.83695876 3.5513112 158.28565184 3.53952143 152.73427916 3.52558756 C146.93799997 3.51311671 141.141719 3.51191259 135.34542847 3.50953674 C124.36298457 3.50331122 113.38058031 3.48688595 102.3981539 3.46683776 C89.89774629 3.44451205 77.39733682 3.43349372 64.89691424 3.42344689 C39.17671721 3.40252062 13.4565554 3.36732388 -12.26361084 3.32279968 C-8.60970895 -0.32199087 -4.85926597 -0.07807953 0 0 Z " fill="#4A7C82" transform="translate(574.2636108398438,635.6772003173828)"/>
<path d="M0 0 C0.66 0.33 1.32 0.66 2 1 C-2.95 5.95 -7.9 10.9 -13 16 C-13.66 15.67 -14.32 15.34 -15 15 C-13.38405168 12.95880212 -11.7143618 10.95927063 -10 9 C-9.34 9 -8.68 9 -8 9 C-7.79375 8.443125 -7.5875 7.88625 -7.375 7.3125 C-5.44999226 4.07498698 -2.96149098 2.31768859 0 0 Z " fill="#5D9CA0" transform="translate(443,432)"/>
<path d="M0 0 C0.66 0.33 1.32 0.66 2 1 C-2.29 5.29 -6.58 9.58 -11 14 C-11.66 13.67 -12.32 13.34 -13 13 C-8.96476648 8.18876004 -4.95532767 3.86757281 0 0 Z " fill="#67AEB0" transform="translate(202,286)"/>
<path d="M0 0 C0.66 0.33 1.32 0.66 2 1 C-5.29840547 9.44646925 -5.29840547 9.44646925 -9 13 C-9.66 12.67 -10.32 12.34 -11 12 C-9.88200014 10.66079162 -8.75538103 9.32877444 -7.625 8 C-6.99851562 7.2575 -6.37203125 6.515 -5.7265625 5.75 C-5.15679687 5.1725 -4.58703125 4.595 -4 4 C-3.34 4 -2.68 4 -2 4 C-2 3.34 -2 2.68 -2 2 C-1.34 2 -0.68 2 0 2 C0 1.34 0 0.68 0 0 Z " fill="#589599" transform="translate(404,398)"/>
</svg>
